<svg width="97" height="41" viewBox="0 0 97 41" fill="none" xmlns="http://www.w3.org/2000/svg">
<rect x="58" y="39.1696" width="38" height="38" rx="19" transform="rotate(-90 58 39.1696)" stroke="black" stroke-width="2"/>
<path d="M82.3333 19.9427H83.5404L82.6869 19.0892L79.2765 15.6788L78.9229 16.0324L79.2765 15.6788C79.1879 15.5902 79.1879 15.4467 79.2765 15.3582C79.365 15.2697 79.5086 15.2697 79.5971 15.3582L84.2481 20.0091C84.3367 20.0977 84.3367 20.2412 84.2481 20.3298L84.6017 20.6833L84.2481 20.3298L79.5974 24.9806C79.5529 25.0251 79.4956 25.0471 79.4369 25.0471C79.3783 25.0471 79.321 25.0251 79.2766 24.9807C79.188 24.8922 79.188 24.7487 79.2766 24.6601L79.2766 24.6601L82.6869 21.2497L83.5404 20.3962H82.3333H69.9121C69.7869 20.3962 69.6854 20.2946 69.6854 20.1695C69.6854 20.0443 69.7869 19.9427 69.9121 19.9427H82.3333Z" fill="black" stroke="black"/>
<rect x="39.8994" y="1.16959" width="38" height="38" rx="19" transform="rotate(90 39.8994 1.16959)" stroke="black" stroke-width="2"/>
<path d="M15.5661 20.3964L14.359 20.3964L15.2125 21.25L18.6229 24.6604L18.9765 24.3068L18.6229 24.6604C18.7115 24.7489 18.7115 24.8925 18.6229 24.981C18.5344 25.0695 18.3908 25.0695 18.3023 24.981L13.6513 20.33C13.5627 20.2415 13.5627 20.098 13.6513 20.0094L13.2978 19.6558L13.6513 20.0094L18.302 15.3586C18.3466 15.3141 18.4038 15.292 18.4625 15.292C18.5212 15.292 18.5784 15.3141 18.6228 15.3584C18.7114 15.447 18.7114 15.5905 18.6228 15.6791L18.6228 15.6791L15.2125 19.0895L14.359 19.943L15.5661 19.943L27.9873 19.943C28.1125 19.943 28.214 20.0446 28.214 20.1697C28.214 20.2949 28.1125 20.3964 27.9873 20.3964L15.5661 20.3964Z" fill="black" stroke="black"/>
</svg>
