<svg width="8" height="6" viewBox="0 0 8 6" fill="none" xmlns="http://www.w3.org/2000/svg">
<path d="M4.30616 4.99506L7.28321 2.01802C7.46484 1.83638 7.46484 1.5418 7.28321 1.36016C7.10153 1.17849 6.80703 1.17849 6.62535 1.36016L4.44239 3.54312C4.44239 3.54312 4.22273 3.78913 3.979 3.78397C3.74113 3.77893 3.51207 3.54312 3.51207 3.54312L1.32911 1.36024C1.14743 1.17856 0.85293 1.17856 0.671256 1.36024C0.580493 1.45104 0.535019 1.57012 0.535019 1.68916C0.535019 1.80821 0.580493 1.92725 0.671256 2.01809L3.6483 4.99506C3.82998 5.17674 4.12448 5.17674 4.30616 4.99506Z" fill="black" stroke="black" stroke-width="0.5"/>
</svg>
